<svg xmlns="http://www.w3.org/2000/svg" version="1.1" xmlns:xlink="http://www.w3.org/1999/xlink" xmlns:svgjs="http://svgjs.dev/svgjs" width="1440" height="560" preserveAspectRatio="none" viewBox="0 0 1440 560"><g mask="url(&quot;#SvgjsMask1002&quot;)" fill="none"><rect width="1440" height="560" x="0" y="0" fill="rgba(202, 138, 4, 1)"></rect><path d="M773.683,286.465C796.362,287.882,818.524,275.019,828.824,254.765C838.379,235.977,830.214,214.627,819.423,196.521C808.969,178.98,794.102,162.025,773.683,162.246C753.526,162.464,738.84,179.564,729.623,197.491C721.283,213.713,721.221,232.199,729.315,248.545C738.569,267.231,752.872,285.164,773.683,286.465" fill="rgba(142, 93, 28, 0.31)" class="triangle-float3"></path><path d="M211.67691227851907 498.72030299105563L281.5789654124532 594.9322251284178 377.79088754981547 525.0301719944837 307.8888344158813 428.8182498571215z" fill="rgba(142, 93, 28, 0.31)" class="triangle-float1"></path><path d="M422.02158160217584 206.06458221828956L470.8214792929606 356.25522395705434 621.0121210317253 307.4553262662696 572.2122233409406 157.2646845275048z" fill="rgba(142, 93, 28, 0.31)" class="triangle-float1"></path><path d="M209.23849409773132 136.25822345007245L250.34580150367606 90.60393339409947 161.31071271674423 51.77011731316887z" fill="rgba(142, 93, 28, 0.31)" class="triangle-float3"></path><path d="M174.13966562907973 333.96740758061424L318.16525129746805 300.7164811415536 284.9143248584074 156.69089547316526 140.88873919001907 189.94182191222592z" fill="rgba(142, 93, 28, 0.31)" class="triangle-float1"></path><path d="M290.3093055673015 210.84463996283753L448.4389922014432 202.55741424761888 440.1517664862246 44.427727613477174 282.02207985208287 52.71495332869583z" fill="rgba(142, 93, 28, 0.31)" class="triangle-float3"></path></g><defs><mask id="SvgjsMask1002"><rect width="1440" height="560" fill="#ffffff"></rect></mask><style>
                @keyframes float1 {
                    0%{transform: translate(0, 0)}
                    50%{transform: translate(-10px, 0)}
                    100%{transform: translate(0, 0)}
                }

                .triangle-float1 {
                    animation: float1 5s infinite;
                }

                @keyframes float2 {
                    0%{transform: translate(0, 0)}
                    50%{transform: translate(-5px, -5px)}
                    100%{transform: translate(0, 0)}
                }

                .triangle-float2 {
                    animation: float2 4s infinite;
                }

                @keyframes float3 {
                    0%{transform: translate(0, 0)}
                    50%{transform: translate(0, -10px)}
                    100%{transform: translate(0, 0)}
                }

                .triangle-float3 {
                    animation: float3 6s infinite;
                }
            </style></defs></svg>