<svg xmlns="http://www.w3.org/2000/svg" version="1.1" xmlns:xlink="http://www.w3.org/1999/xlink" xmlns:svgjs="http://svgjs.dev/svgjs" width="1440" height="560" preserveAspectRatio="none" viewBox="0 0 1440 560"><g mask="url(&quot;#SvgjsMask1006&quot;)" fill="none"><rect width="1440" height="560" x="0" y="0" fill="rgba(41, 37, 36, 1)"></rect><path d="M1445.476,398.846C1483.706,401.362,1524.829,388.509,1543.323,354.955C1561.376,322.201,1546.689,283.174,1526.626,251.611C1508.299,222.779,1479.634,201.692,1445.476,201.026C1410.158,200.337,1375.598,217.341,1358.654,248.337C1342.292,278.27,1350.607,313.846,1367.652,343.395C1384.711,372.967,1411.41,396.604,1445.476,398.846" fill="rgba(142, 93, 28, 0.31)" class="triangle-float1"></path><path d="M60.53747728194313 71.22796329640528L-40.12781329682422 111.899380721544 101.20889470708187 171.89325387517263z" fill="rgba(142, 93, 28, 0.31)" class="triangle-float2"></path><path d="M1324.5582165760961 192.43007771004778L1489.6549745623793 175.07770921705705 1472.3026060693885 9.980951230773883 1307.2058480831054 27.333319723764617z" fill="rgba(142, 93, 28, 0.31)" class="triangle-float2"></path><path d="M469.73115548940325 154.44012226572806L561.2246525607261 80.35014919619672 395.64118241987194 62.9466251944052z" fill="rgba(142, 93, 28, 0.31)" class="triangle-float1"></path><path d="M1080.2974580355494 69.47615435552702L1160.1347629384334-13.04027432568364 1063.1865606383594-39.01746683963751z" fill="rgba(142, 93, 28, 0.31)" class="triangle-float1"></path><path d="M592.792385405862 365.8378110071064L696.9681346829105 341.89149467723735 634.443980530207 272.4513865961352z" fill="rgba(142, 93, 28, 0.31)" class="triangle-float2"></path></g><defs><mask id="SvgjsMask1006"><rect width="1440" height="560" fill="#ffffff"></rect></mask><style>
                @keyframes float1 {
                    0%{transform: translate(0, 0)}
                    50%{transform: translate(-10px, 0)}
                    100%{transform: translate(0, 0)}
                }

                .triangle-float1 {
                    animation: float1 5s infinite;
                }

                @keyframes float2 {
                    0%{transform: translate(0, 0)}
                    50%{transform: translate(-5px, -5px)}
                    100%{transform: translate(0, 0)}
                }

                .triangle-float2 {
                    animation: float2 4s infinite;
                }

                @keyframes float3 {
                    0%{transform: translate(0, 0)}
                    50%{transform: translate(0, -10px)}
                    100%{transform: translate(0, 0)}
                }

                .triangle-float3 {
                    animation: float3 6s infinite;
                }
            </style></defs></svg>