<svg xmlns="http://www.w3.org/2000/svg" version="1.1" xmlns:xlink="http://www.w3.org/1999/xlink" xmlns:svgjs="http://svgjs.dev/svgjs" width="1440" height="560" preserveAspectRatio="none" viewBox="0 0 1440 560"><g mask="url(&quot;#SvgjsMask1010&quot;)" fill="none"><rect width="1440" height="560" x="0" y="0" fill="rgba(203, 213, 225, 1)"></rect><path d="M180.053,499.693C213.985,501.319,246.588,482.267,262.44,452.221C277.409,423.85,269.479,390.025,252.161,363.023C236.326,338.333,209.295,326.059,180.053,323.764C145.028,321.015,102.788,319.478,85.258,349.925C67.744,380.344,91.517,415.273,110.29,444.932C127.236,471.705,148.404,498.177,180.053,499.693" fill="rgba(142, 93, 28, 0.31)" class="triangle-float1"></path><path d="M988.6742666655638 54.11528696814044L970.5656708310104 147.2759363923752 1063.7263202552451 165.38453222692857 1081.8349160897985 72.22388280269381z" fill="rgba(142, 93, 28, 0.31)" class="triangle-float2"></path><path d="M304.6775338457825 151.81408396607324L393.4620843537073 89.77248717697046 308.36138517659464 48.26610287855266z" fill="rgba(142, 93, 28, 0.31)" class="triangle-float2"></path><path d="M1375.913,308.403C1399.353,308.893,1422.116,299.778,1435.239,280.35C1450.179,258.232,1458.999,228.932,1444.898,206.27C1431.273,184.373,1401.648,183.329,1375.913,185.006C1353.692,186.454,1332.289,195.202,1320.922,214.35C1309.322,233.891,1309.263,258.339,1320.733,277.957C1332.098,297.394,1353.402,307.932,1375.913,308.403" fill="rgba(142, 93, 28, 0.31)" class="triangle-float3"></path><path d="M783.1735131586069 149.00882642299962L936.1535203960722 124.92860160797242 852.8082511913256 18.251521706477433z" fill="rgba(142, 93, 28, 0.31)" class="triangle-float2"></path><path d="M125.65329493180595 587.655962937183L169.808010996711 433.6701683687387 15.822216428266785 389.5154523038337-28.332499636638275 543.5012468722779z" fill="rgba(142, 93, 28, 0.31)" class="triangle-float1"></path></g><defs><mask id="SvgjsMask1010"><rect width="1440" height="560" fill="#ffffff"></rect></mask><style>
                @keyframes float1 {
                    0%{transform: translate(0, 0)}
                    50%{transform: translate(-10px, 0)}
                    100%{transform: translate(0, 0)}
                }

                .triangle-float1 {
                    animation: float1 5s infinite;
                }

                @keyframes float2 {
                    0%{transform: translate(0, 0)}
                    50%{transform: translate(-5px, -5px)}
                    100%{transform: translate(0, 0)}
                }

                .triangle-float2 {
                    animation: float2 4s infinite;
                }

                @keyframes float3 {
                    0%{transform: translate(0, 0)}
                    50%{transform: translate(0, -10px)}
                    100%{transform: translate(0, 0)}
                }

                .triangle-float3 {
                    animation: float3 6s infinite;
                }
            </style></defs></svg>