<svg xmlns="http://www.w3.org/2000/svg" version="1.1" xmlns:xlink="http://www.w3.org/1999/xlink" xmlns:svgjs="http://svgjs.dev/svgjs" width="1440" height="560" preserveAspectRatio="none" viewBox="0 0 1440 560"><g mask="url(&quot;#SvgjsMask1012&quot;)" fill="none"><rect width="1440" height="560" x="0" y="0" fill="rgba(15, 23, 42, 1)"></rect><path d="M900.74,389.78C942.881,388.991,976.261,358.343,997.086,321.699C1017.622,285.565,1025.87,241.82,1005.378,205.661C984.639,169.066,942.772,150.079,900.74,151.689C861.349,153.198,829.196,179.252,809.122,213.178C788.599,247.862,779.379,289.653,797.938,325.427C817.892,363.89,857.417,390.591,900.74,389.78" fill="rgba(142, 93, 28, 0.31)" class="triangle-float3"></path><path d="M1356.4196846026944 448.8021945319649L1484.3827362447917 428.5348382154116 1464.1153799282383 300.5717865733142 1336.152328286141 320.83914288986756z" fill="rgba(142, 93, 28, 0.31)" class="triangle-float2"></path><path d="M1232.024212376698 49.640142664301266L1121.6039533476755 103.49570143063926 1175.4595121140137 213.9159604596616 1285.879771143036 160.0604016933236z" fill="rgba(142, 93, 28, 0.31)" class="triangle-float3"></path><path d="M46.54274036657661 146.86873944000536L136.42201006654284 101.07296414589905 22.788712275400265-10.848052756997134z" fill="rgba(142, 93, 28, 0.31)" class="triangle-float3"></path><path d="M582.4494597140458 412.4713135324284L484.5389921436412 442.40554750466424 612.3836936862817 510.381781102833z" fill="rgba(142, 93, 28, 0.31)" class="triangle-float2"></path><path d="M378.4537149356991 105.12824816605091L375.99404908901136 246.04241014728183 516.9082110702423 248.50207599396958 519.3678769169301 107.58791401273866z" fill="rgba(142, 93, 28, 0.31)" class="triangle-float3"></path></g><defs><mask id="SvgjsMask1012"><rect width="1440" height="560" fill="#ffffff"></rect></mask><style>
                @keyframes float1 {
                    0%{transform: translate(0, 0)}
                    50%{transform: translate(-10px, 0)}
                    100%{transform: translate(0, 0)}
                }

                .triangle-float1 {
                    animation: float1 5s infinite;
                }

                @keyframes float2 {
                    0%{transform: translate(0, 0)}
                    50%{transform: translate(-5px, -5px)}
                    100%{transform: translate(0, 0)}
                }

                .triangle-float2 {
                    animation: float2 4s infinite;
                }

                @keyframes float3 {
                    0%{transform: translate(0, 0)}
                    50%{transform: translate(0, -10px)}
                    100%{transform: translate(0, 0)}
                }

                .triangle-float3 {
                    animation: float3 6s infinite;
                }
            </style></defs></svg>